<mxfile host="Electron" agent="Mozilla/5.0 (X11; Linux x86_64) AppleWebKit/537.36 (KHTML, like Gecko) draw.io/26.0.4 Chrome/128.0.6613.186 Electron/32.2.5 Safari/537.36" version="26.0.4">
  <diagram name="Page-1" id="icpI4erBP-z_fg38ehUv">
    <mxGraphModel dx="1114" dy="1198" grid="1" gridSize="10" guides="1" tooltips="1" connect="1" arrows="1" fold="1" page="1" pageScale="1" pageWidth="850" pageHeight="1100" math="0" shadow="0">
      <root>
        <mxCell id="0" />
        <mxCell id="1" parent="0" />
        <mxCell id="gibKI9dSI2RaGNb2gqrP-22" value="" style="rounded=0;whiteSpace=wrap;html=1;fillColor=none;strokeColor=#7AA116;" vertex="1" parent="1">
          <mxGeometry x="590" y="448.5" width="170" height="181.5" as="geometry" />
        </mxCell>
        <mxCell id="gibKI9dSI2RaGNb2gqrP-20" style="edgeStyle=orthogonalEdgeStyle;rounded=0;orthogonalLoop=1;jettySize=auto;html=1;startArrow=classic;startFill=1;strokeColor=#0000FF;" edge="1" parent="1" source="gibKI9dSI2RaGNb2gqrP-1" target="gibKI9dSI2RaGNb2gqrP-12">
          <mxGeometry relative="1" as="geometry" />
        </mxCell>
        <mxCell id="gibKI9dSI2RaGNb2gqrP-1" value="Users&lt;div&gt;&lt;b&gt;(Finance)&lt;/b&gt;&lt;/div&gt;" style="sketch=0;outlineConnect=0;fontColor=#232F3E;gradientColor=none;fillColor=#0000FF;strokeColor=none;dashed=0;verticalLabelPosition=middle;verticalAlign=middle;align=right;html=1;fontSize=12;fontStyle=0;aspect=fixed;pointerEvents=1;shape=mxgraph.aws4.users;labelPosition=left;spacingRight=5;" vertex="1" parent="1">
          <mxGeometry x="170" y="300" width="78" height="78" as="geometry" />
        </mxCell>
        <mxCell id="gibKI9dSI2RaGNb2gqrP-19" style="edgeStyle=orthogonalEdgeStyle;rounded=0;orthogonalLoop=1;jettySize=auto;html=1;strokeColor=#FF8000;startArrow=classic;startFill=1;" edge="1" parent="1" source="gibKI9dSI2RaGNb2gqrP-3" target="gibKI9dSI2RaGNb2gqrP-13">
          <mxGeometry relative="1" as="geometry" />
        </mxCell>
        <mxCell id="gibKI9dSI2RaGNb2gqrP-3" value="Users&lt;div&gt;&lt;b&gt;(Sales)&lt;/b&gt;&lt;/div&gt;" style="sketch=0;outlineConnect=0;fontColor=#232F3E;gradientColor=none;fillColor=#FF8000;strokeColor=none;dashed=0;verticalLabelPosition=middle;verticalAlign=middle;align=right;html=1;fontSize=12;fontStyle=0;aspect=fixed;pointerEvents=1;shape=mxgraph.aws4.users;labelPosition=left;spacingRight=5;" vertex="1" parent="1">
          <mxGeometry x="160" y="500" width="78" height="78" as="geometry" />
        </mxCell>
        <mxCell id="gibKI9dSI2RaGNb2gqrP-18" style="edgeStyle=orthogonalEdgeStyle;rounded=0;orthogonalLoop=1;jettySize=auto;html=1;startArrow=classic;startFill=1;" edge="1" parent="1" source="gibKI9dSI2RaGNb2gqrP-4" target="gibKI9dSI2RaGNb2gqrP-14">
          <mxGeometry relative="1" as="geometry" />
        </mxCell>
        <mxCell id="gibKI9dSI2RaGNb2gqrP-4" value="Users&lt;div&gt;&lt;b&gt;(Analytics)&lt;/b&gt;&lt;/div&gt;" style="sketch=0;outlineConnect=0;fontColor=#232F3E;gradientColor=none;fillColor=#232F3D;strokeColor=none;dashed=0;verticalLabelPosition=middle;verticalAlign=middle;align=right;html=1;fontSize=12;fontStyle=0;aspect=fixed;pointerEvents=1;shape=mxgraph.aws4.users;labelPosition=left;spacingRight=5;" vertex="1" parent="1">
          <mxGeometry x="160" y="700" width="78" height="78" as="geometry" />
        </mxCell>
        <mxCell id="gibKI9dSI2RaGNb2gqrP-29" style="edgeStyle=orthogonalEdgeStyle;rounded=0;orthogonalLoop=1;jettySize=auto;html=1;strokeColor=#0000FF;" edge="1" parent="1" source="gibKI9dSI2RaGNb2gqrP-12" target="gibKI9dSI2RaGNb2gqrP-25">
          <mxGeometry relative="1" as="geometry">
            <Array as="points">
              <mxPoint x="520" y="339" />
              <mxPoint x="520" y="510" />
            </Array>
          </mxGeometry>
        </mxCell>
        <mxCell id="gibKI9dSI2RaGNb2gqrP-12" value="Fiance&lt;div&gt;Access Point&lt;/div&gt;" style="sketch=0;outlineConnect=0;fontColor=#0000FF;gradientColor=none;fillColor=#7AA116;strokeColor=none;dashed=0;verticalLabelPosition=bottom;verticalAlign=top;align=center;html=1;fontSize=12;fontStyle=1;aspect=fixed;pointerEvents=1;shape=mxgraph.aws4.general_access_points;" vertex="1" parent="1">
          <mxGeometry x="435" y="300" width="65" height="78" as="geometry" />
        </mxCell>
        <mxCell id="gibKI9dSI2RaGNb2gqrP-28" style="edgeStyle=orthogonalEdgeStyle;rounded=0;orthogonalLoop=1;jettySize=auto;html=1;strokeColor=#FF8000;" edge="1" parent="1" source="gibKI9dSI2RaGNb2gqrP-13" target="gibKI9dSI2RaGNb2gqrP-26">
          <mxGeometry relative="1" as="geometry">
            <Array as="points">
              <mxPoint x="550" y="539" />
              <mxPoint x="550" y="580" />
            </Array>
          </mxGeometry>
        </mxCell>
        <mxCell id="gibKI9dSI2RaGNb2gqrP-13" value="Sales&lt;div&gt;Access Point&lt;/div&gt;" style="sketch=0;outlineConnect=0;fontColor=#FF8000;gradientColor=none;fillColor=#7AA116;strokeColor=none;dashed=0;verticalLabelPosition=bottom;verticalAlign=top;align=center;html=1;fontSize=12;fontStyle=1;aspect=fixed;pointerEvents=1;shape=mxgraph.aws4.general_access_points;" vertex="1" parent="1">
          <mxGeometry x="435" y="500" width="65" height="78" as="geometry" />
        </mxCell>
        <mxCell id="gibKI9dSI2RaGNb2gqrP-30" style="edgeStyle=orthogonalEdgeStyle;rounded=0;orthogonalLoop=1;jettySize=auto;html=1;" edge="1" parent="1" source="gibKI9dSI2RaGNb2gqrP-14" target="gibKI9dSI2RaGNb2gqrP-26">
          <mxGeometry relative="1" as="geometry">
            <Array as="points">
              <mxPoint x="550" y="739" />
              <mxPoint x="550" y="590" />
            </Array>
          </mxGeometry>
        </mxCell>
        <mxCell id="gibKI9dSI2RaGNb2gqrP-31" style="edgeStyle=orthogonalEdgeStyle;rounded=0;orthogonalLoop=1;jettySize=auto;html=1;" edge="1" parent="1" source="gibKI9dSI2RaGNb2gqrP-14" target="gibKI9dSI2RaGNb2gqrP-25">
          <mxGeometry relative="1" as="geometry">
            <Array as="points">
              <mxPoint x="530" y="730" />
              <mxPoint x="530" y="520" />
            </Array>
          </mxGeometry>
        </mxCell>
        <mxCell id="gibKI9dSI2RaGNb2gqrP-14" value="Analytics&lt;div&gt;Access Point&lt;/div&gt;" style="sketch=0;outlineConnect=0;fontColor=#232F3E;gradientColor=none;fillColor=#7AA116;strokeColor=none;dashed=0;verticalLabelPosition=bottom;verticalAlign=top;align=center;html=1;fontSize=12;fontStyle=1;aspect=fixed;pointerEvents=1;shape=mxgraph.aws4.general_access_points;" vertex="1" parent="1">
          <mxGeometry x="435" y="700" width="65" height="78" as="geometry" />
        </mxCell>
        <mxCell id="gibKI9dSI2RaGNb2gqrP-15" value="" style="sketch=0;outlineConnect=0;fontColor=#232F3E;gradientColor=none;fillColor=#DD344C;strokeColor=none;dashed=0;verticalLabelPosition=bottom;verticalAlign=top;align=center;html=1;fontSize=12;fontStyle=0;aspect=fixed;pointerEvents=1;shape=mxgraph.aws4.permissions;" vertex="1" parent="1">
          <mxGeometry x="385" y="240" width="62" height="78" as="geometry" />
        </mxCell>
        <mxCell id="gibKI9dSI2RaGNb2gqrP-16" value="" style="sketch=0;outlineConnect=0;fontColor=#232F3E;gradientColor=none;fillColor=#DD344C;strokeColor=none;dashed=0;verticalLabelPosition=bottom;verticalAlign=top;align=center;html=1;fontSize=12;fontStyle=0;aspect=fixed;pointerEvents=1;shape=mxgraph.aws4.permissions;" vertex="1" parent="1">
          <mxGeometry x="385" y="440" width="62" height="78" as="geometry" />
        </mxCell>
        <mxCell id="gibKI9dSI2RaGNb2gqrP-17" value="" style="sketch=0;outlineConnect=0;fontColor=#232F3E;gradientColor=none;fillColor=#DD344C;strokeColor=none;dashed=0;verticalLabelPosition=bottom;verticalAlign=top;align=center;html=1;fontSize=12;fontStyle=0;aspect=fixed;pointerEvents=1;shape=mxgraph.aws4.permissions;" vertex="1" parent="1">
          <mxGeometry x="385" y="640" width="62" height="78" as="geometry" />
        </mxCell>
        <mxCell id="gibKI9dSI2RaGNb2gqrP-21" value="S3 Bucket" style="sketch=0;points=[[0,0,0],[0.25,0,0],[0.5,0,0],[0.75,0,0],[1,0,0],[0,1,0],[0.25,1,0],[0.5,1,0],[0.75,1,0],[1,1,0],[0,0.25,0],[0,0.5,0],[0,0.75,0],[1,0.25,0],[1,0.5,0],[1,0.75,0]];outlineConnect=0;fontColor=#232F3E;fillColor=#7AA116;strokeColor=#ffffff;dashed=0;verticalLabelPosition=middle;verticalAlign=middle;align=left;html=1;fontSize=12;fontStyle=0;aspect=fixed;shape=mxgraph.aws4.resourceIcon;resIcon=mxgraph.aws4.s3;labelPosition=right;spacingLeft=5;" vertex="1" parent="1">
          <mxGeometry x="590" y="448.5" width="31.5" height="31.5" as="geometry" />
        </mxCell>
        <mxCell id="gibKI9dSI2RaGNb2gqrP-25" value="/finance/..." style="sketch=0;outlineConnect=0;fontColor=#232F3E;gradientColor=none;fillColor=#0000FF;strokeColor=none;dashed=0;verticalLabelPosition=bottom;verticalAlign=top;align=center;html=1;fontSize=12;fontStyle=0;aspect=fixed;pointerEvents=1;shape=mxgraph.aws4.folder;" vertex="1" parent="1">
          <mxGeometry x="610" y="490" width="43.94" height="40" as="geometry" />
        </mxCell>
        <mxCell id="gibKI9dSI2RaGNb2gqrP-26" value="/sales/..." style="sketch=0;outlineConnect=0;fontColor=#232F3E;gradientColor=none;fillColor=#FF8000;strokeColor=none;dashed=0;verticalLabelPosition=bottom;verticalAlign=top;align=center;html=1;fontSize=12;fontStyle=0;aspect=fixed;pointerEvents=1;shape=mxgraph.aws4.folder;" vertex="1" parent="1">
          <mxGeometry x="610" y="560" width="43.94" height="40" as="geometry" />
        </mxCell>
        <mxCell id="gibKI9dSI2RaGNb2gqrP-27" value="Simples Bucket&lt;div&gt;Policy&lt;/div&gt;" style="sketch=0;outlineConnect=0;fontColor=#232F3E;gradientColor=none;fillColor=#DD344C;strokeColor=none;dashed=0;verticalLabelPosition=bottom;verticalAlign=top;align=center;html=1;fontSize=12;fontStyle=0;aspect=fixed;pointerEvents=1;shape=mxgraph.aws4.permissions;" vertex="1" parent="1">
          <mxGeometry x="680" y="500.25" width="62" height="78" as="geometry" />
        </mxCell>
      </root>
    </mxGraphModel>
  </diagram>
</mxfile>
